<?xml version="1.0" encoding="UTF-8"?>
<svg xmlns="http://www.w3.org/2000/svg" xmlns:xlink="http://www.w3.org/1999/xlink" width="304px" height="304px" viewBox="0 0 304 304" version="1.1">
<defs>
<clipPath id="clip1">
  <path d="M 45.601562 43 L 258.402344 43 L 258.402344 261 L 45.601562 261 Z M 45.601562 43 "/>
</clipPath>
<clipPath id="clip2">
  <path d="M 129.492188 92.148438 L 174.511719 92.148438 L 174.511719 211.847656 L 129.492188 211.847656 Z M 129.492188 92.148438 "/>
</clipPath>
</defs>
<g id="surface1">
<rect x="0" y="0" width="304" height="304" style="fill:rgb(99.607843%,99.607843%,88.627451%);fill-opacity:1;stroke:none;"/>
<g clip-path="url(#clip1)" clip-rule="nonzero">
<path style=" stroke:none;fill-rule:nonzero;fill:rgb(49.803922%,76.470588%,49.411765%);fill-opacity:1;" d="M 59.539062 183.402344 L 62.015625 186.5 L 60.777344 182.472656 C 60.46875 180.613281 58.300781 182.78125 59.539062 183.402344 M 62.328125 181.542969 C 63.253906 183.089844 64.183594 184.640625 64.183594 186.1875 C 64.183594 188.359375 66.042969 189.285156 67.59375 189.90625 C 65.421875 187.429688 64.183594 180.613281 62.328125 181.542969 M 181.269531 50.207031 C 186.535156 50.207031 191.492188 49.589844 197.070312 50.828125 C 210.699219 54.234375 222.160156 61.046875 229.902344 70.652344 L 251.585938 105.34375 C 252.515625 114.015625 254.375 123.617188 254.0625 134.152344 C 256.230469 134.152344 255.921875 131.054688 258.398438 130.433594 C 255.921875 136.628906 254.683594 144.371094 254.0625 153.355469 C 252.515625 148.398438 254.0625 140.964844 254.375 136.9375 C 252.203125 140.347656 250.964844 137.867188 250.964844 136.320312 C 251.277344 133.839844 250.035156 134.148438 249.105469 133.222656 C 245.699219 130.125 243.53125 126.714844 241.054688 121.449219 C 242.601562 117.425781 242.914062 111.539062 237.957031 108.441406 C 236.40625 107.511719 234.550781 105.964844 233.621094 103.484375 C 232.382812 100.078125 230.210938 96.050781 230.832031 90.785156 C 231.140625 89.238281 226.183594 94.191406 223.398438 92.023438 C 211.316406 83.660156 199.238281 74.058594 184.679688 66.003906 C 176.933594 66.003906 171.359375 63.21875 168.570312 59.808594 C 166.09375 56.710938 167.953125 52.6875 171.667969 52.375 C 173.839844 52.375 176.316406 51.757812 178.175781 52.996094 C 178.484375 51.757812 179.722656 50.207031 181.269531 50.207031 M 150.605469 43.082031 L 151.226562 43.394531 C 154.324219 44.011719 155.871094 48.347656 159.277344 46.800781 C 159.277344 48.96875 159.589844 51.136719 158.96875 52.6875 C 158.039062 55.164062 155.25 55.164062 153.082031 55.164062 C 132.332031 53.925781 120.25 62.597656 107.550781 70.03125 C 104.144531 72.199219 100.425781 73.75 97.636719 76.535156 C 84.320312 88.925781 69.761719 100.386719 66.351562 123.308594 L 63.566406 148.707031 C 63.253906 151.496094 60.15625 154.285156 60.777344 157.691406 L 62.945312 172.871094 C 60.777344 170.699219 59.539062 173.488281 60.15625 174.726562 C 60.46875 175.65625 61.707031 178.753906 63.566406 175.96875 C 66.042969 180.613281 68.523438 189.597656 71.929688 193.621094 C 82.460938 206.011719 96.089844 217.164062 107.242188 228.316406 C 110.027344 227.695312 112.195312 227.695312 112.816406 225.835938 C 113.746094 227.695312 111.886719 229.554688 110.339844 229.863281 C 115.292969 232.960938 120.871094 235.75 128.304688 236.367188 C 137.90625 236.988281 146.890625 238.539062 155.253906 240.707031 C 159.589844 239.464844 163.925781 238.847656 168.570312 238.539062 C 170.121094 238.539062 171.050781 236.058594 172.910156 235.441406 L 173.21875 232.34375 C 175.078125 235.128906 174.765625 231.414062 173.527344 229.554688 C 175.695312 231.414062 176.316406 232.960938 177.246094 234.199219 C 177.246094 233.273438 179.722656 229.863281 179.722656 233.890625 L 180.34375 229.863281 C 181.269531 229.246094 181.582031 233.273438 182.511719 230.484375 C 183.441406 227.695312 185.296875 229.863281 187.15625 228.933594 C 186.539062 230.171875 186.847656 232.652344 189.015625 231.101562 L 191.492188 228.933594 C 193.042969 232.652344 195.519531 231.101562 196.757812 230.484375 C 210.386719 221.808594 224.015625 211.589844 237.027344 201.367188 L 236.71875 205.394531 L 238.265625 200.4375 C 239.816406 201.984375 241.054688 200.746094 241.671875 199.816406 C 243.53125 196.71875 246.007812 193.621094 250.035156 190.835938 C 245.082031 204.15625 239.195312 214.6875 231.761719 223.359375 L 228.664062 227.078125 C 228.664062 229.246094 228.042969 232.03125 225.566406 232.34375 C 224.328125 232.652344 221.847656 231.722656 219.992188 233.582031 C 219.0625 234.820312 222.160156 237.296875 219.679688 235.441406 C 217.511719 233.890625 215.34375 235.441406 212.867188 236.058594 C 211.007812 236.679688 214.105469 238.539062 214.726562 239.777344 C 215.34375 241.015625 215.964844 242.253906 215.65625 243.804688 L 212.246094 240.085938 C 208.21875 242.253906 205.742188 246.28125 202.335938 249.378906 C 200.785156 250.617188 201.40625 252.785156 201.40625 254.644531 C 199.238281 254.644531 196.757812 254.023438 195.519531 255.265625 C 194.589844 256.503906 194.902344 258.363281 194.902344 260.21875 C 191.804688 259.910156 191.492188 255.265625 188.707031 256.191406 C 185.917969 256.8125 182.820312 257.121094 180.34375 258.671875 C 182.199219 262.386719 177.246094 260.21875 177.863281 260.839844 C 173.21875 258.050781 169.191406 255.882812 164.234375 257.742188 C 153.703125 254.335938 140.695312 255.882812 131.089844 257.121094 C 131.089844 255.574219 131.402344 254.023438 130.78125 253.714844 C 130.160156 255.265625 128.304688 254.644531 128.613281 254.644531 C 122.730469 250.617188 116.84375 248.140625 110.648438 244.730469 C 105.074219 245.351562 99.808594 242.5625 98.257812 241.015625 C 93.921875 236.988281 88.964844 239.15625 84.9375 238.226562 C 76.265625 236.058594 73.167969 227.074219 72.238281 220.882812 C 71.617188 217.785156 69.140625 216.542969 68.210938 216.855469 C 64.183594 203.84375 57.992188 192.074219 53.035156 179.992188 C 51.796875 176.894531 52.105469 173.796875 52.105469 170.390625 C 53.652344 171.011719 55.203125 170.699219 54.894531 168.535156 C 53.34375 158.3125 49.628906 150.566406 45.601562 143.132812 C 47.769531 132.601562 48.078125 120.210938 53.035156 110.917969 C 57.371094 102.554688 65.425781 98.21875 71 91.09375 C 72.859375 88.617188 72.859375 85.210938 74.71875 83.042969 C 80.914062 76.847656 87.105469 70.339844 93.921875 64.765625 C 97.019531 62.289062 100.734375 64.765625 105.382812 63.835938 C 106.929688 58.261719 113.125 53.304688 119.011719 54.855469 C 121.488281 55.472656 126.445312 48.96875 127.996094 48.347656 C 130.472656 47.421875 129.234375 50.828125 129.234375 52.996094 C 135.117188 48.347656 143.171875 45.871094 150.605469 43.082031 "/>
</g>
<g clip-path="url(#clip2)" clip-rule="nonzero">
<path style=" stroke:none;fill-rule:nonzero;fill:rgb(49.803922%,76.470588%,49.411765%);fill-opacity:1;" d="M 129.492188 92.148438 L 174.507812 92.148438 L 174.507812 107.679688 L 160.550781 107.679688 L 160.550781 196.320312 L 174.507812 196.320312 L 174.507812 211.851562 L 129.492188 211.851562 L 129.492188 196.320312 L 143.449219 196.320312 L 143.449219 107.679688 L 129.492188 107.679688 Z M 129.492188 92.148438 "/>
</g>
</g>
</svg>
